<svg xmlns="http://www.w3.org/2000/svg" viewBox="0 0 24 24"><g fill="none" class="nc-icon-wrapper"><path d="M20.2002 6.79883H3.7998V19.999C3.7998 20.3173 3.92632 20.6226 4.15137 20.8477C4.37641 21.0727 4.68174 21.1992 5 21.1992H19C19.3183 21.1992 19.6236 21.0727 19.8486 20.8477C20.0737 20.6226 20.2002 20.3173 20.2002 19.999V6.79883ZM7.2002 9.99902C7.2002 9.5572 7.55817 9.19922 8 9.19922C8.44183 9.19922 8.7998 9.5572 8.7998 9.99902C8.7998 10.8477 9.13719 11.6616 9.7373 12.2617C10.3374 12.8618 11.1513 13.1992 12 13.1992L12.1582 13.1953C12.9493 13.1562 13.7 12.8244 14.2627 12.2617C14.8628 11.6616 15.2002 10.8477 15.2002 9.99902C15.2002 9.5572 15.5582 9.19922 16 9.19922C16.4418 9.19922 16.7998 9.5572 16.7998 9.99902C16.7998 11.2721 16.2947 12.4934 15.3945 13.3936C14.5507 14.2374 13.4246 14.7341 12.2383 14.793L12 14.7988C10.727 14.7988 9.50564 14.2937 8.60547 13.3936C7.70529 12.4934 7.2002 11.2721 7.2002 9.99902ZM4.59961 5.19922H19.4004L17.5996 2.79883H6.40039L4.59961 5.19922ZM21.7998 19.999C21.7998 20.7416 21.5046 21.4534 20.9795 21.9785C20.4544 22.5036 19.7426 22.7988 19 22.7988H5C4.25739 22.7988 3.54561 22.5036 3.02051 21.9785C2.49541 21.4534 2.2002 20.7416 2.2002 19.999V5.99902C2.2002 5.82593 2.25649 5.65703 2.36035 5.51855L5.36035 1.51855L5.4209 1.44727C5.57092 1.28978 5.77979 1.19922 6 1.19922H18C18.2516 1.19922 18.4885 1.31739 18.6396 1.51855L21.6396 5.51855C21.7435 5.65703 21.7998 5.82593 21.7998 5.99902V19.999Z" fill="currentColor"></path></g></svg>